<svg xmlns="http://www.w3.org/2000/svg" width="128" height="128" fill="none" viewBox="0 0 128 128">
  <path fill="#E434AA" d="m18.39 96.852-4.6-2.657 51.25-88.76 4.597 2.655L18.39 96.852Z"/>
  <path fill="#E434AA" d="M12.734 87.106H115.23v5.31H12.734v-5.31Z"/>
  <path fill="#E434AA" d="M66.03 119.688 14.767 90.09l2.656-4.602 51.266 29.602-2.657 4.598Zm44.536-77.145L59.301 12.941l2.656-4.597 51.266 29.597-2.657 4.602Z"/>
  <path fill="#E434AA" d="m17.434 42.523-2.657-4.6 51.27-29.599 2.656 4.598-51.27 29.601Z"/>
  <path fill="#E434AA" d="M109.621 96.852 58.375 8.09l4.598-2.656 51.25 88.761-4.602 2.657ZM16.8 34.398h5.313v59.204H16.8V34.398Z"/>
  <path fill="#E434AA" d="M105.887 34.398h5.312v59.204h-5.312V34.398Z"/>
  <path fill="#E434AA" d="m65.13 117.441-2.32-4.02 44.585-25.745 2.32 4.02-44.586 25.745Z"/>
  <path fill="#E434AA" d="M118.238 95.328c-3.07 5.344-9.918 7.168-15.261 4.098-5.344-3.074-7.168-9.922-4.098-15.266 3.074-5.344 9.922-7.168 15.266-4.097 5.375 3.105 7.199 9.921 4.093 15.265ZM29.09 43.84c-3.074 5.344-9.922 7.168-15.266 4.097-5.344-3.074-7.168-9.92-4.097-15.265 3.074-5.344 9.92-7.168 15.265-4.098 5.344 3.106 7.168 9.922 4.098 15.266ZM9.762 95.328c-3.075-5.344-1.25-12.16 4.093-15.266 5.344-3.07 12.16-1.246 15.266 4.098 3.07 5.344 1.246 12.16-4.098 15.266-5.375 3.07-12.191 1.246-15.261-4.098ZM98.91 43.84c-3.07-5.344-1.246-12.16 4.098-15.266 5.344-3.07 12.16-1.246 15.265 4.098 3.07 5.344 1.247 12.16-4.097 15.266-5.344 3.07-12.192 1.246-15.266-4.098ZM64 126.656a11.14 11.14 0 0 1-7.9-3.268 11.159 11.159 0 0 1-3.268-7.9 11.152 11.152 0 0 1 6.892-10.32A11.16 11.16 0 0 1 64 104.32a11.16 11.16 0 0 1 11.168 11.168c0 6.145-4.992 11.168-11.168 11.168ZM64 23.68a11.156 11.156 0 0 1-11.168-11.168A11.156 11.156 0 0 1 64 1.344a11.158 11.158 0 0 1 11.168 11.168A11.158 11.158 0 0 1 64 23.68Z"/>
</svg>
