<svg xmlns="http://www.w3.org/2000/svg" width="128" height="128" fill="none" viewBox="0 0 128 128">
  <path fill="#0868AC" d="M65.283 106.928c-.828-.187-1.633-.446-2.44-.685l-.61-.185a74.38 74.38 0 0 1-2.352-.765l-.323-.117a69.676 69.676 0 0 1-2.074-.769l-.582-.229c-.752-.297-1.5-.607-2.238-.931l-.447-.198a93.748 93.748 0 0 1-1.889-.879l-.546-.262c-.49-.239-.977-.493-1.46-.743-.325-.171-.655-.332-.976-.51a56.436 56.436 0 0 1-1.75-.982l-.592-.33a79.962 79.962 0 0 1-2.28-1.397l-.615-.41c-.547-.35-1.088-.71-1.623-1.079l-.523-.367a93.741 93.741 0 0 1-1.534-1.109l-.679-.514a67.143 67.143 0 0 1-1.384-1.082l-.617-.495a85.604 85.604 0 0 1-1.724-1.453l-.188-.159a81.609 81.609 0 0 1-1.812-1.647l-.51-.49a58.1 58.1 0 0 1-1.302-1.278l-.51-.509a72.667 72.667 0 0 1-1.599-1.69l-.078-.084a65.788 65.788 0 0 1-1.62-1.844l-.425-.504a67.51 67.51 0 0 1-1.167-1.442l-.427-.532a78.544 78.544 0 0 1-1.347-1.794C12.89 62.89 8.524 40.032 18.236 21.26l-8.61 10.921c-11.03 15.851-9.657 36.476-1.232 53.32.2.404.411.801.617 1.198l.395.76.245.436.44.786c.261.461.53.92.804 1.38l.458.755c.304.491.615.976.934 1.46l.398.614c.438.655.888 1.31 1.352 1.951l.04.05.227.308c.4.553.814 1.1 1.232 1.64l.463.59c.373.468.752.934 1.14 1.398l.434.52a74.392 74.392 0 0 0 1.586 1.812l.032.033.062.068a78.324 78.324 0 0 0 1.612 1.699l.517.521c.423.426.853.845 1.287 1.262l.526.5c.58.547 1.166 1.083 1.764 1.607l.028.022.307.262c.526.456 1.062.909 1.603 1.353l.664.529c.441.354.887.702 1.336 1.044l.714.543c.495.365.995.724 1.5 1.075l.545.387.15.107c.478.329.967.646 1.456.963l.63.42c.75.474 1.51.943 2.278 1.396l.63.355c.566.327 1.137.647 1.711.959.312.168.632.327.946.488.407.213.811.429 1.225.636l.283.137.501.242c.641.306 1.287.607 1.94.897l.41.184c.749.328 1.503.641 2.263.941l.551.217c.704.271 1.418.539 2.135.791l.268.093c.786.275 1.581.53 2.381.779l.575.172c.814.245 1.618.538 2.458.693 53.339 9.727 68.833-32.053 68.833-32.053-13.014 16.954-36.112 21.426-57.997 16.447ZM46.07 63.698c1.195 1.712 2.52 3.75 4.105 5.126.58.635 1.177 1.255 1.79 1.858l.472.465c.596.58 1.206 1.147 1.828 1.698l.074.064.018.018a55.383 55.383 0 0 0 2.135 1.767l.484.378c.73.563 1.475 1.106 2.233 1.631l.065.05c.336.231.68.447 1.02.671l.482.32c.544.348 1.096.688 1.656 1.014l.234.136c.483.278.973.552 1.463.818l.521.271c.34.177.678.358 1.024.53l.155.07c.702.346 1.411.68 2.136.995l.472.194a50.02 50.02 0 0 0 1.75.71l.75.275c.533.198 1.068.378 1.608.56l.727.232c.767.238 1.525.54 2.324.672 41.183 6.823 50.69-24.886 50.69-24.886-8.57 12.343-25.168 18.233-42.879 13.635-.783-.206-1.56-.43-2.333-.674l-.7-.227a46.323 46.323 0 0 1-1.632-.562l-.736-.274a57.664 57.664 0 0 1-1.756-.708l-.473-.2a47.792 47.792 0 0 1-2.148-.999c-.364-.177-.72-.364-1.078-.548l-.622-.32a44.714 44.714 0 0 1-1.363-.77l-.326-.185a47.968 47.968 0 0 1-1.65-1.008l-.498-.332a66.028 66.028 0 0 1-1.069-.707 58.284 58.284 0 0 1-2.226-1.628l-.5-.395c-7.753-6.12-13.898-14.486-16.82-23.97-3.062-9.837-2.4-20.879 2.903-29.84l-6.517 9.2c-7.977 11.477-7.543 26.843-1.32 38.982a50.378 50.378 0 0 0 3.527 5.892Zm43.407-14.2c.34.125.678.237 1.022.354l.451.143c.484.152.966.33 1.467.424 22.739 4.394 28.908-11.669 30.549-14.034-5.403 7.78-14.482 9.646-25.623 6.942-.88-.213-1.848-.53-2.696-.832a33.276 33.276 0 0 1-3.2-1.329c-1.98-.953-3.86-2.1-5.613-3.424-9.969-7.565-16.162-21.994-9.657-33.745l-3.52 4.851c-4.702 6.92-5.164 15.514-1.9 23.156 3.44 8.112 10.491 14.475 18.72 17.494Z"/>
</svg>
