<svg xmlns="http://www.w3.org/2000/svg" width="128" height="128" fill="none" viewBox="0 0 128 128">
  <path fill="#6181B6" d="M64 33.04C30.26 33.04 2.906 46.9 2.906 64S30.26 94.961 64 94.961s61.094-13.862 61.094-30.96c0-17.1-27.354-30.962-61.094-30.962ZM48.103 70.031c-1.458 1.364-3.077 1.927-4.86 2.507-1.783.581-4.052.461-6.811.461h-6.253l-1.733 10h-7.301l6.515-34H41.7c4.224 0 7.305 1.215 9.242 3.432 1.937 2.217 2.519 5.364 1.747 9.337-.32 1.637-.856 3.16-1.614 4.515a15.118 15.118 0 0 1-2.972 3.748ZM69.413 73l2.882-14.42c.328-1.688.208-2.942-.361-3.555-.57-.614-1.782-1.025-3.635-1.025h-5.79l-3.731 19h-7.244l6.515-33h7.244l-1.732 9h6.453c4.06 0 6.86.815 8.402 2.231 1.54 1.416 2.003 3.356 1.387 6.528L76.772 73h-7.358Zm40.26-11.178c-.318 1.637-.856 3.133-1.613 4.488-.758 1.357-1.748 2.598-2.971 3.722-1.458 1.364-3.078 1.927-4.86 2.507-1.782.581-4.053.461-6.812.461h-6.253l-1.732 10H78.13l6.514-34h14.04c4.225 0 7.306 1.215 9.242 3.432 1.935 2.217 2.518 5.418 1.746 9.39ZM95.919 54h-5.001L88.19 68h4.442c2.942 0 5.136-.29 6.576-1.4 1.442-1.108 2.413-2.828 2.918-5.42.484-2.492.264-4.435-.66-5.459-.925-1.024-2.774-1.72-5.548-1.72Zm-56.985 0h-5.002l-2.727 14h4.44c2.944 0 5.137-.29 6.578-1.4 1.44-1.108 2.413-2.828 2.917-5.42.484-2.492.264-4.435-.66-5.459s-2.772-1.72-5.546-1.72Z"/>
</svg>
