<svg xmlns="http://www.w3.org/2000/svg" width="50" height="50" fill="none" viewBox="0 0 50 50">
  <path fill="#fff" d="M22.194.178C10.67 1.468 1.402 11.01.149 22.614c-1.253 12.12 5.511 22.951 15.782 27.077.752.258 1.503-.257 1.503-1.289v-4.126s-1.002.258-2.255.258c-3.507 0-5.01-3.095-5.26-4.9-.25-1.031-.752-1.805-1.503-2.579-.752-.258-1.002-.258-1.002-.515 0-.516.751-.516 1.002-.516 1.503 0 2.755 1.805 3.256 2.579 1.253 2.063 2.756 2.578 3.508 2.578 1.002 0 1.753-.257 2.254-.515.25-1.805 1.002-3.61 2.505-4.642-5.762-1.29-10.02-4.642-10.02-10.315 0-2.837 1.252-5.674 3.006-7.737-.25-.516-.501-1.805-.501-3.61 0-1.032 0-2.579.751-4.126 0 0 3.508 0 7.015 3.352 1.252-.515 3.006-.773 4.76-.773 1.753 0 3.506.258 5.01.773 3.256-3.352 7.014-3.352 7.014-3.352.5 1.547.5 3.094.5 4.126 0 2.063-.25 3.094-.5 3.61 1.753 2.063 3.006 4.642 3.006 7.737 0 5.673-4.259 9.025-10.02 10.315 1.502 1.29 2.505 3.61 2.505 5.931v6.705c0 .774.751 1.547 1.753 1.29C43.487 46.08 50 36.796 50 25.965 50 10.495 37.224-1.627 22.194.178Z"/>
</svg>
