<?xml version="1.0" encoding="UTF-8" standalone="no" ?>
<!DOCTYPE svg PUBLIC "-//W3C//DTD SVG 1.1//EN" "http://www.w3.org/Graphics/SVG/1.1/DTD/svg11.dtd">
<svg xmlns="http://www.w3.org/2000/svg" xmlns:xlink="http://www.w3.org/1999/xlink" version="1.1" width="1080" height="1080" viewBox="0 0 1080 1080" xml:space="preserve">
<desc>Created with Fabric.js 5.2.4</desc>
<defs>
</defs>
<g transform="matrix(1 0 0 1 540 540)" id="7ce805a6-228e-4580-be82-e13e1e32266a"  >
<rect style="stroke: none; stroke-width: 1; stroke-dasharray: none; stroke-linecap: butt; stroke-dashoffset: 0; stroke-linejoin: miter; stroke-miterlimit: 4; fill: rgb(255,255,255); fill-rule: nonzero; opacity: 1; visibility: hidden;" vector-effect="non-scaling-stroke"  x="-540" y="-540" rx="0" ry="0" width="1080" height="1080" />
</g>
<g transform="matrix(1 0 0 1 540 540)" id="03bcc7fa-23bf-4cc3-bfb8-138e936e3a34"  >
</g>
<g transform="matrix(1 0 0 1 540 540)" id="58a04619-5f61-4e2a-8691-1ad4aa731a9b"  >
<path style="stroke: rgb(0,0,0); stroke-width: 0; stroke-dasharray: none; stroke-linecap: butt; stroke-dashoffset: 0; stroke-linejoin: miter; stroke-miterlimit: 4; fill: rgb(255,255,255); fill-rule: nonzero; opacity: 1;" vector-effect="non-scaling-stroke"  transform=" translate(-25, -25)" d="M 25 2 C 12.318 2 2 12.317 2 25 C 2 37.683 12.318 48 25 48 C 37.682 48 48 37.683 48 25 C 48 12.317 37.682 2 25 2 z M 18 35 L 14 35 L 14 20 L 18 20 L 18 35 z M 16 17 C 14.895 17 14 16.105 14 15 C 14 13.895 14.895 13 16 13 C 17.105 13 18 13.895 18 15 C 18 16.105 17.105 17 16 17 z M 37 35 L 33 35 L 33 30 L 33 27.5 C 33 25.575 31.425 24 29.5 24 C 27.575 24 26 25.575 26 27.5 L 26 35 L 22 35 L 22 20 L 26 20 L 26 21.816 C 27.168 20.694 28.752 20 30.5 20 C 34.09 20 37 22.91 37 26.5 L 37 35 z" stroke-linecap="round" />
</g>
</svg>